<svg width="103" height="38" viewBox="0 0 103 38" xmlns="http://www.w3.org/2000/svg"><title>Custom Preset</title><g fill="none" fill-rule="evenodd"><rect fill="#FF8D0D" y="22" width="75" height="13.776" rx="6.888"/><path d="M86.103 3.157C86.643 2.47 87.71 2 88.936 2c1.331 0 2.473.552 2.96 1.338.084.02.168.04.252.062v11.363h1.889V4.05c4.132 1.808 6.94 5.76 6.842 10.346-.01.44-.045.874-.106 1.3 1.24.633 1.953 1.374 1.953 2.167 0 2.316-6.09 4.194-13.6 4.194-7.512 0-13.602-1.878-13.602-4.194 0-.727.6-1.41 1.654-2.006h-.584a10.74 10.74 0 0 1-.067-1.46c.101-4.73 3.266-8.786 7.687-10.511v10.877h1.889V3.157z" fill="#FF8D0D"/><path d="M100.307 21.054c-.35 2.583-1.617 4.888-3.476 6.598l-7.936 9.68-7.96-9.678c-1.814-1.668-3.065-3.901-3.45-6.407.704.316 1.546.6 2.498.845 1.095 3.722 4.58 6.443 8.71 6.443 4.13 0 7.615-2.721 8.71-6.443 1.142-.294 2.125-.644 2.904-1.038z" fill="#FFF"/><path d="M5.838 25.29h1.716v3.233l3.025-3.234h2.244l-3.465 3.62 3.762 4.168h-2.398l-3.168-3.696v3.696H5.838V25.29zm7.81 3.893c0-.623.105-1.188.314-1.694.209-.506.5-.937.874-1.292a3.853 3.853 0 0 1 1.331-.82 4.798 4.798 0 0 1 1.683-.286c.609 0 1.17.096 1.683.286.514.19.957.464 1.331.82.374.355.666.786.875 1.292.209.506.313 1.07.313 1.694 0 .624-.104 1.188-.313 1.694-.21.506-.5.937-.875 1.293a3.853 3.853 0 0 1-1.33.82 4.798 4.798 0 0 1-1.684.285c-.608 0-1.17-.095-1.683-.286a3.853 3.853 0 0 1-1.33-.82 3.715 3.715 0 0 1-.875-1.292 4.398 4.398 0 0 1-.314-1.694zm1.782 0c0 .367.057.702.17 1.007a2.234 2.234 0 0 0 1.254 1.315c.298.124.63.186.996.186.367 0 .699-.062.996-.187A2.234 2.234 0 0 0 20.1 30.19c.113-.305.17-.64.17-1.007 0-.36-.057-.693-.17-1a2.234 2.234 0 0 0-1.254-1.32 2.549 2.549 0 0 0-.996-.188c-.366 0-.698.063-.995.187a2.234 2.234 0 0 0-1.254 1.32 2.87 2.87 0 0 0-.17 1.001zm8.14-3.894h2.597l1.793 5.082h.022l1.804-5.082h2.585v7.788h-1.716v-5.973h-.022l-2.046 5.973h-1.31l-1.968-5.973h-.022v5.973H23.57V25.29zm10.737 0H37.2c.403 0 .784.037 1.144.11.36.074.673.2.94.38.268.18.48.421.638.726.158.304.237.687.237 1.15 0 .454-.074.835-.22 1.143a1.877 1.877 0 0 1-.605.737 2.453 2.453 0 0 1-.913.39 5.351 5.351 0 0 1-1.144.116h-1.254v3.036h-1.716V25.29zm1.716 3.3h1.144c.154 0 .302-.014.445-.044.143-.03.272-.079.385-.148a.792.792 0 0 0 .275-.286.904.904 0 0 0 .105-.457.772.772 0 0 0-.138-.478.914.914 0 0 0-.352-.28 1.507 1.507 0 0 0-.478-.127 4.889 4.889 0 0 0-.506-.028h-.88v1.848zm12.133 1.485c0 .462-.07.888-.209 1.276-.14.389-.346.726-.621 1.012-.275.286-.618.51-1.029.671-.41.162-.884.242-1.419.242-.543 0-1.02-.08-1.43-.242a2.847 2.847 0 0 1-1.028-.67 2.808 2.808 0 0 1-.622-1.013 3.756 3.756 0 0 1-.209-1.276V25.29h1.716v4.72c0 .241.039.465.116.67.077.206.185.383.324.534.14.15.306.267.5.352.195.084.406.126.633.126A1.488 1.488 0 0 0 46 31.212c.14-.15.248-.327.325-.533.077-.205.115-.429.115-.67v-4.72h1.716v4.785zm3.443-3.267h-2.222V25.29h6.16v1.518h-2.222v6.27H51.6v-6.27zm5.226-1.518h5.29v1.584h-3.574v1.452h3.377v1.584H58.54v1.584h3.773v1.584h-5.49V25.29zm7.216 0h3.014c.396 0 .772.039 1.127.116.356.077.668.205.935.385.268.18.48.421.638.726.158.304.237.684.237 1.138 0 .55-.143 1.018-.43 1.403-.285.385-.703.629-1.253.731l1.98 3.29h-2.057l-1.628-3.114h-.847v3.113H64.04V25.29zm1.716 3.223h1.012c.154 0 .317-.005.49-.016.172-.011.327-.044.467-.1a.809.809 0 0 0 .346-.258c.092-.117.138-.282.138-.495 0-.198-.04-.355-.121-.473a.807.807 0 0 0-.308-.27 1.366 1.366 0 0 0-.43-.126 3.5 3.5 0 0 0-.472-.033h-1.122v1.771z" fill="#000"/><path d="M6.263 7.588H3.11V5.434h8.744v2.154H8.7v8.9H6.263v-8.9zm16.145 4.638c0 .656-.098 1.26-.296 1.811a3.986 3.986 0 0 1-.882 1.437c-.39.406-.877.723-1.46.952-.583.23-1.255.344-2.015.344-.77 0-1.447-.115-2.03-.344a4.041 4.041 0 0 1-1.46-.952 3.986 3.986 0 0 1-.882-1.437 5.332 5.332 0 0 1-.296-1.811V5.434h2.436v6.698c0 .344.054.661.164.953.109.291.262.544.46.757.198.213.435.38.71.5.276.12.576.18.898.18.323 0 .62-.06.89-.18.271-.12.505-.287.703-.5.198-.213.351-.466.46-.757.11-.292.165-.61.165-.953V5.434h2.435v6.792zm2.343-6.792h2.435v4.59l4.294-4.59h3.186l-4.919 5.137 5.34 5.918h-3.404l-4.497-5.247v5.247h-2.435V5.434zm14.817 0h2.015l4.809 11.055h-2.748l-.953-2.343h-4.294l-.92 2.343H34.79l4.778-11.055zm.937 3.216l-1.343 3.435h2.702L40.505 8.65zM47.5 5.434h3.31l4.7 7.682h.032V5.434h2.436v11.055h-3.186l-4.825-7.87h-.03v7.87H47.5V5.434zm22.735 10.274a8.818 8.818 0 0 1-2.249.812c-.78.166-1.577.25-2.389.25a6.81 6.81 0 0 1-2.389-.406A5.469 5.469 0 0 1 61.32 15.2a5.274 5.274 0 0 1-1.241-1.834c-.297-.719-.445-1.52-.445-2.405 0-.885.148-1.686.445-2.404.296-.719.71-1.33 1.241-1.835a5.469 5.469 0 0 1 1.89-1.163 6.81 6.81 0 0 1 2.388-.406c.885 0 1.7.106 2.444.32.744.213 1.397.58 1.96 1.1l-1.718 1.874a3.422 3.422 0 0 0-1.124-.78c-.417-.177-.937-.266-1.562-.266-.52 0-.991.089-1.413.266a3.171 3.171 0 0 0-1.085.741 3.258 3.258 0 0 0-.695 1.132c-.161.437-.242.911-.242 1.421 0 .52.08.997.242 1.429a3.171 3.171 0 0 0 1.78 1.866c.422.177.893.265 1.413.265.531 0 .99-.06 1.374-.18.385-.12.693-.241.922-.366v-1.796H65.91V9.931h4.325v5.777z" fill="#FFF"/></g></svg>
